# xmcd
#
# Track frame offsets:
#	150
#	13317
#	30420
#	50934
#	70929
#	84870
#	105094
#	116937
#	137882
#	162103
#	177829
#	192293
#
# Disc length: 2657 seconds
#
# Revision: 1
# Processed by: cddbd v1.5.2PL0 Copyright (c) Steve Scherf et al.
# Submitted via: audiograbber 1.83.01
#
DISCID=9d0a5f0c
DTITLE=Chris Smither - Leave The Light On
DYEAR=2006
DGENRE=Blues
TTITLE0=Open Up
TTITLE1=Leave The Light On
TTITLE2=Shillin' For The Blues
TTITLE3=Seems So Real
TTITLE4=Origin Of Species
TTITLE5=Cold Trail Blues
TTITLE6=Diplomacy
TTITLE7=Father's Day
TTITLE8=Visions Of Johanna
TTITLE9=Blues In The Bottle
TTITLE10=John Hardy
TTITLE11=John Hardy Reprise
EXTD=
EXTT0=
EXTT1=
EXTT2=
EXTT3=
EXTT4=
EXTT5=
EXTT6=
EXTT7=
EXTT8=
EXTT9=
EXTT10=
EXTT11=
PLAYORDER=
